<?xml version="1.0" encoding="UTF-8" standalone="no"?>
<svg
   xmlns:dc="http://purl.org/dc/elements/1.1/"
   xmlns:cc="http://creativecommons.org/ns#"
   xmlns:rdf="http://www.w3.org/1999/02/22-rdf-syntax-ns#"
   xmlns:svg="http://www.w3.org/2000/svg"
   xmlns="http://www.w3.org/2000/svg"
   xmlns:sodipodi="http://sodipodi.sourceforge.net/DTD/sodipodi-0.dtd"
   xmlns:inkscape="http://www.inkscape.org/namespaces/inkscape"
   data-name="Layer 1"
   width="847.61975"
   height="486.28799"
   viewBox="0 0 847.61976 486.288"
   version="1.1"
   id="svg2039"
   sodipodi:docname="ai_art.svg"
   inkscape:version="1.0.1 (3bc2e813f5, 2020-09-07)">
  <metadata
     id="metadata2045">
    <rdf:RDF>
      <cc:Work
         rdf:about="">
        <dc:format>image/svg+xml</dc:format>
        <dc:type
           rdf:resource="http://purl.org/dc/dcmitype/StillImage" />
        <dc:title></dc:title>
      </cc:Work>
    </rdf:RDF>
  </metadata>
  <defs
     id="defs2043" />
  <sodipodi:namedview
     pagecolor="#ffffff"
     bordercolor="#666666"
     borderopacity="1"
     objecttolerance="10"
     gridtolerance="10"
     guidetolerance="10"
     inkscape:pageopacity="0"
     inkscape:pageshadow="2"
     inkscape:window-width="3840"
     inkscape:window-height="2050"
     id="namedview2041"
     showgrid="false"
     inkscape:zoom="1.1962102"
     inkscape:cx="469.71711"
     inkscape:cy="157.12844"
     inkscape:window-x="2676"
     inkscape:window-y="-12"
     inkscape:window-maximized="1"
     inkscape:current-layer="svg2039"
     fit-margin-top="100"
     fit-margin-left="0"
     fit-margin-right="0"
     fit-margin-bottom="0" />
  <circle
     style="opacity:1;fill:#f2f2f2;fill-opacity:1;stroke:#f2f2f2;stroke-width:0;stroke-linecap:round;stroke-linejoin:round;stroke-opacity:1"
     id="ellipse2610"
     cx="470.28839"
     cy="381.30991"
     r="90" />
  <ellipse
     style="opacity:1;fill:#f2f2f2;fill-opacity:1;stroke:#f2f2f2;stroke-width:0;stroke-linecap:round;stroke-linejoin:round;stroke-opacity:1"
     id="path2608"
     cx="470.2695"
     cy="188.31677"
     rx="85.996994"
     ry="85.997002" />
  <circle
     cx="779.26624"
     cy="280.30994"
     r="38"
     fill="#f2f2f2"
     id="circle1971" />
  <circle
     cx="779.26624"
     cy="280.30994"
     r="10"
     fill="#e6e6e6"
     id="circle1973" />
  <path
     d="m 777.43918,280.52349 c 4.21232,3.43649 5.49592,8.85257 4.71218,14.08229 a 24.45215,24.45215 0 0 1 -8.394,14.68089 c -5.00924,4.45233 -11.1191,7.46085 -17.01448,10.54154 a 123.75213,123.75213 0 0 0 -15.57529,9.45471 c -18.96063,13.7809 -33.28511,33.40312 -41.48334,55.3 -8.1844,21.85994 -10.38035,46.67168 -4.16128,69.32729 3.077,11.20916 9.30169,23.30307 20.89812,27.5209 9.24369,3.36209 21.864,1.19633 26.57069,-8.33047 5.05592,-10.23367 -1.998,-21.73722 -11.08431,-26.81766 -11.77824,-6.5856 -25.84735,-1.77336 -36.44112,4.89279 -11.66306,7.339 -21.03868,17.87056 -33.21534,24.44828 a 41.73876,41.73876 0 0 1 -17.84367,5.20536 44.68956,44.68956 0 0 1 -16.909,-2.61231 57.27268,57.27268 0 0 1 -27.66166,-21.47129 c -7.73426,-11.24292 -11.19627,-25.02477 -11.82763,-38.52511 -1.41262,-30.20619 10.51982,-58.4649 20.09358,-86.47742 a 264.21067,264.21067 0 0 0 11.51923,-44.8596 232.40593,232.40593 0 0 0 2.54533,-46.38837 c -0.63367,-13.71367 -1.98648,-28.054 -8.0391,-40.57887 -5.32217,-11.01334 -15.0489,-20.02716 -27.34646,-22.29967 a 27.27728,27.27728 0 0 0 -16.43941,1.88837 c -1.75416,0.80022 -0.23123,3.38662 1.51416,2.59041 10.88282,-4.96455 23.74565,-0.13414 31.78379,7.88181 9.38649,9.36057 12.83346,23.18379 14.36407,35.93871 a 225.58927,225.58927 0 0 1 -7.96815,89.993 c -8.34677,28.35216 -21.476,55.521 -24.5056,85.22575 -1.38243,13.55453 -0.67224,27.56718 3.66032,40.56478 a 63.359,63.359 0 0 0 20.07822,29.56579 c 8.84214,7.14826 19.71981,12.01852 31.171,12.56105 12.85436,0.609 24.12668,-5.12157 34.09957,-12.7448 10.68114,-8.1646 20.50852,-18.23866 33.447,-22.81668 5.89862,-2.08709 12.617,-3.0607 18.67336,-1.052 a 23.4303,23.4303 0 0 1 12.4523,10.012 c 2.63043,4.37385 3.60072,9.84247 1.20032,14.5411 -2.25686,4.41768 -6.662,6.97294 -11.43071,7.84743 a 22.17976,22.17976 0 0 1 -14.72394,-2.50178 c -5.22406,-2.98356 -9.04665,-7.99083 -11.72468,-13.28109 -5.34038,-10.5495 -7.13473,-23.10743 -7.40712,-34.81666 a 115.28688,115.28688 0 0 1 4.34843,-33.85332 119.45634,119.45634 0 0 1 36.08916,-57.52881 105.96132,105.96132 0 0 1 13.97433,-10.289 c 5.38,-3.316 11.12259,-5.96561 16.6072,-9.09444 5.39679,-3.07872 10.71546,-6.75721 14.43185,-11.82346 a 25.43467,25.43467 0 0 0 4.88726,-14.95064 16.76606,16.76606 0 0 0 -5.80386,-13.07206 c -1.48381,-1.21052 -3.61863,0.89979 -2.12132,2.12132 z"
     fill="#cccccc"
     id="path1975" />
  <path
     d="m 422.68618,455.30992 a 87.33929,87.33929 0 0 0 44.47022,13.94 20.84973,20.84973 0 0 1 -0.9502,1.96 25.06735,25.06735 0 0 1 -7.60009,8.55 24.96917,24.96917 0 0 1 -39.33985,-20.42 v -4.03 z"
     fill="#3f3d56"
     id="path1977" />
  <path
     d="m 515.9562,456.48991 v 2.85 a 24.96061,24.96061 0 0 1 -46.87988,11.95 20.84826,20.84826 0 0 1 -0.99023,-2.01 c 0.73,0.02 1.45019,0.03 2.18017,0.03 a 87.46657,87.46657 0 0 0 45.68994,-12.82 z"
     fill="#3f3d56"
     id="path1979" />
  <path
     d="m 549.59634,155.1099 c -0.75,-0.11 -1.51025,-0.18 -2.27,-0.23 a 83.981,83.981 0 0 1 1.66992,62.71 c 0.76026,-0.09 1.51026,-0.21 2.26026,-0.35 a 31.50228,31.50228 0 0 0 -1.66016,-62.13 z"
     fill="#3f3d56"
     id="path1981" />
  <path
     d="m 393.2062,154.87992 c -0.75976,0.05 -1.52,0.12 -2.27,0.23 a 31.50227,31.50227 0 0 0 -1.66015,62.13 c 0.75,0.14 1.5,0.26 2.26025,0.35 a 83.981,83.981 0 0 1 1.66992,-62.71 z"
     fill="#3f3d56"
     id="path1983" />
  <path
     d="m 549.59634,155.1099 a 85.99677,85.99677 0 1 0 6.66992,33.2 86.1148,86.1148 0 0 0 -6.66992,-33.2 z m -0.6001,62.48 a 83.981,83.981 0 1 1 5.27,-29.28 84.122,84.122 0 0 1 -5.27,29.28004 z"
     fill="#3f3d56"
     id="path1985" />
  <path
     d="m 514.26626,168.80992 h -88 a 17.5,17.5 0 0 0 0,35 h 88 a 17.5,17.5 0 0 0 0,-35 z"
     fill="#3f3d56"
     id="path1987" />
  <path
     d="m 470.26626,291.30992 a 89.99675,89.99675 0 0 0 -4.06006,179.9 c 0.9502,0.05 1.91016,0.08 2.87012,0.08 0.3999,0.02 0.79,0.02 1.18994,0.02 a 90,90 0 0 0 0,-180 z m 45.68994,165.18 a 87.46657,87.46657 0 0 1 -45.68994,12.82 c -0.73,0 -1.45019,-0.01 -2.18017,-0.03 q -0.46509,0 -0.92969,-0.03 a 88.0512,88.0512 0 1 1 48.7998,-12.76 z"
     fill="#3f3d56"
     id="path1989" />
  <path
     d="m 533.43301,359.14341 h -39.3335 a 10.3335,10.3335 0 0 1 0,-20.667 h 39.3335 a 10.3335,10.3335 0 0 1 0,20.667 z"
     fill="#3f3d56"
     id="path1991" />
  <circle
     cx="496.72183"
     cy="348.80994"
     r="5.2444401"
     fill="#f2f2f2"
     id="circle1993" />
  <circle
     cx="513.76624"
     cy="348.80994"
     r="5.2444401"
     fill="#f2f2f2"
     id="circle1995" />
  <circle
     cx="530.81073"
     cy="348.80994"
     r="5.2444401"
     fill="#e63946"
     id="circle1997" />
  <path
     d="m 164.62538,481.69756 c 8.99256,-7.59864 14.45479,-19.60227 13.02232,-31.28788 -1.43247,-11.68561 -10.30472,-22.42829 -21.81332,-24.90978 -11.5086,-2.48149 -24.62761,4.38768 -28.12315,15.62987 -1.92376,-21.6745 -4.14055,-44.25714 -15.6641,-62.715 -10.43429,-16.71314 -28.506671,-28.672 -48.093051,-30.81147 -19.58638,-2.13947 -40.20832,5.941 -52.42362,21.40027 -12.21529983,15.45927 -15.2061799,37.93388 -6.6508999,55.68241 6.3023799,13.07473 17.9135799,22.80511 30.0792299,30.72127 38.81262,25.2553 86.959641,33.78829 132.772241,27.04622 z"
     fill="#f2f2f2"
     id="path1999" />
  <path
     d="m 30.899089,353.9922 a 317.625,317.625 0 0 1 44.26411,43.95415 322.163,322.163 0 0 1 34.907541,51.66276 320.84426,320.84426 0 0 1 14.94817,31.65122 c 0.89773,2.19991 -2.67454,3.15752 -3.56229,0.98208 a 315.27614,315.27614 0 0 0 -28.807771,-54.50557 317.26015,317.26015 0 0 0 -38.63584,-47.729 316.50072,316.50072 0 0 0 -25.72616,-23.40341 c -1.8443,-1.5018 0.78314,-4.10164 2.61223,-2.61223 z"
     fill="#ffffff"
     id="path2001" />
  <circle
     cx="161.57649"
     cy="135"
     r="31"
     fill="#2f2e41"
     id="circle2003" />
  <path
     d="m 277.19359,248.51128 a 10.77786,10.77786 0 0 1 -2.14862,2.37261 11.0024,11.0024 0 0 1 -16.227,-2.49759 10.23957,10.23957 0 0 1 -0.53728,-0.9378 l -48.84971,-4.713 a 18.013,18.013 0 0 1 -15.887,-14.49974 l -2.77273,-14.61708 19.06439,-2.96585 3.42115,11.7085 47.6279,11.69913 a 10.48965,10.48965 0 0 1 1.17046,-0.89009 11.00253,11.00253 0 0 1 15.13851,15.341 z"
     fill="#ffb8b8"
     id="path2005" />
  <path
     d="m 214.42775,220.594 -21.296,5.75282 a 4.50507,4.50507 0 0 1 -5.51783,-3.17073 l -7.459,-27.61183 a 12.3986,12.3986 0 0 1 23.00384,-8.88775 l 14.10045,27.5212 a 4.49956,4.49956 0 0 1 -2.83146,6.39629 z"
     fill="#2f2e41"
     id="path2007" />
  <polygon
     points="202.092,374.133 214.351,374.133 220.184,326.845 202.089,326.846 "
     fill="#ffb8b8"
     id="polygon2009"
     transform="translate(0,100)" />
  <path
     d="m 237.99568,485.51575 -38.53073,0.002 -6.8e-4,-14.88687 23.64387,-10e-4 a 14.88686,14.88686 0 0 1 14.88754,14.88618 v 0 z"
     fill="#2f2e41"
     id="path2011" />
  <polygon
     points="92.822,362.185 104.292,366.515 126.454,324.337 109.526,317.946 "
     fill="#ffb8b8"
     id="polygon2013"
     transform="translate(0,100)" />
  <path
     d="m 122.39011,485.51746 -36.046863,-13.61032 5.258532,-13.92719 22.119681,8.35179 a 14.88686,14.88686 0 0 1 8.66865,19.18571 v 0 z"
     fill="#2f2e41"
     id="path2015" />
  <path
     d="m 201.70466,463.14941 a 4.49693,4.49693 0 0 1 -4.27564,-3.11425 L 166.16047,363.4707 a 1.50038,1.50038 0 0 0 -2.78491,-0.17676 l -43.33448,92.20118 a 4.50408,4.50408 0 0 1 -5.49536,2.35547 l -17.066871,-5.68946 a 4.5089,4.5089 0 0 1 -2.92774,-5.418 L 121.09555,346.19626 a 229.08189,229.08189 0 0 0 6.00342,-32.42676 73.50978,73.50978 0 0 1 23.71679,-46.877 34.20494,34.20494 0 0 0 10.76587,-20.46289 l 0.0715,-0.50293 38.87377,6.13769 24.62354,200.92871 a 4.52009,4.52009 0 0 1 -3.29688,4.8916 l -18.97387,5.1084 a 4.47969,4.47969 0 0 1 -1.17507,0.15633 z"
     fill="#2f2e41"
     id="path2017" />
  <circle
     cx="173.89145"
     cy="141.29134"
     r="24.561029"
     fill="#ffb8b8"
     id="circle2019" />
  <path
     d="m 198.11115,256.34863 c -0.0769,0 -0.15381,-0.002 -0.23144,-0.006 L 159.34385,254.416 a 4.475,4.475 0 0 1 -4.252,-4.03515 l -5.26441,-51.32813 a 23.17175,23.17175 0 0 1 29.32422,-24.66992 h 2.4e-4 a 22.47446,22.47446 0 0 1 8.24561,4.2417 c 27.10815,22.26221 18.36743,62.59815 15.04272,74.43018 a 4.48226,4.48226 0 0 1 -4.32908,3.29395 z"
     fill="#e63946"
     id="path2021"
     style="fill:#f2f2f2;fill-opacity:1" />
  <path
     d="m 164.58625,290.81445 a 10.77781,10.77781 0 0 1 -3.16553,-0.47461 11.0024,11.0024 0 0 1 -6.90918,-14.89355 10.23809,10.23809 0 0 1 0.48316,-0.9668 l -23.13526,-43.28125 a 18.013,18.013 0 0 1 3.27173,-21.25879 l 10.63379,-10.40527 13.02954,14.22949 -7.853,9.334 16.64209,46.13378 a 10.492,10.492 0 0 1 1.3894,0.48145 11.00252,11.00252 0 0 1 -4.38672,21.10156 z"
     fill="#ffb8b8"
     id="path2023" />
  <path
     d="m 153.0615,223.09368 -16.586,-14.54365 a 4.50508,4.50508 0 0 1 -0.41663,-6.35031 l 18.85694,-21.505 a 12.3986,12.3986 0 0 1 20.14207,14.229 l -15.1026,26.98428 a 4.49956,4.49956 0 0 1 -6.89378,1.18565 z"
     fill="#2f2e41"
     id="path2025" />
  <path
     d="m 158.08643,165.14931 c 2.24091,0.79458 4.98823,1.49515 6.75163,-0.15284 1.72153,-1.60886 1.40789,-4.551 0.39375,-6.71849 -1.01414,-2.16749 -2.587,-4.09633 -3.0692,-6.45551 -0.69115,-3.38111 1.09579,-6.89375 3.64667,-9.09811 2.55088,-2.20436 5.7618,-3.36231 8.89636,-4.47657 l 17.19315,-6.11178 c 4.25582,-1.51284 8.84187,-3.29 11.22343,-7.2712 3.446,-5.76061 0.2957,-13.99506 -5.3568,-17.35649 -5.6525,-3.36143 -12.79229,-2.7352 -18.89074,-0.3716 -3.373,1.30726 -6.58157,3.10864 -10.06978,4.02888 -6.88427,1.81616 -14.71189,0.18688 -20.76149,4.06849 -5.26616,3.37892 -7.70874,10.27337 -7.53138,16.72432 0.17736,6.45095 2.55256,12.5945 5.05791,18.4942 1.49051,3.50993 3.08274,7.0603 5.60736,9.85195 2.52462,2.79165 6.17289,4.74455 9.81715,4.23088 z"
     fill="#2f2e41"
     id="path2027" />
  <circle
     cx="135.57649"
     cy="120"
     r="20"
     fill="#2f2e41"
     id="circle2029" />
  <path
     id="a5b0fbf6-85a2-48e8-ad40-c81376cd9893-155"
     data-name="Path 22"
     d="m 297.78824,235.45038 -0.35491,-0.0488 1.33654,-9.72271 a 5.68039,5.68039 0 0 0 -4.85388,-6.401 l -20.59957,-2.83172 a 5.68038,5.68038 0 0 0 -6.401,4.85388 l -7.33245,53.34046 a 5.68038,5.68038 0 0 0 4.85388,6.401 l 20.59956,2.83172 a 5.6804,5.6804 0 0 0 6.401,-4.85389 l 5.04444,-36.69694 0.35491,0.0488 z"
     fill="#3f3d56" />
  <path
     id="a5d1dbd7-b3f0-4599-af89-34309e57a462-156"
     data-name="Path 23"
     d="m 293.26845,222.13028 -2.56459,-0.35254 a 1.92232,1.92232 0 0 1 -2.12411,2.38125 l -11.25648,-1.54737 a 1.92233,1.92233 0 0 1 -1.40261,-2.86605 l -2.39549,-0.3293 a 4.04622,4.04622 0 0 0 -4.55957,3.4575 l -6.98382,50.80423 a 4.04624,4.04624 0 0 0 3.45751,4.55957 l 19.74328,2.714 a 4.04624,4.04624 0 0 0 4.55957,-3.4575 v 0 l 6.98382,-50.80435 a 4.04623,4.04623 0 0 0 -3.45751,-4.55949 z"
     fill="#ffffff" />
  <circle
     cx="279.26627"
     cy="253.30994"
     r="11"
     fill="#e63946"
     id="circle2033" />
  <path
     d="m 278.17591,257.50616 a 1.14079,1.14079 0 0 1 -0.68644,-0.228 l -0.0123,-0.009 -2.58508,-1.97923 a 1.14849,1.14849 0 1 1 1.397,-1.8233 l 1.67441,1.28392 3.95691,-5.16039 a 1.14846,1.14846 0 0 1 1.61023,-0.21256 l -0.0246,0.0334 0.0252,-0.0329 a 1.14978,1.14978 0 0 1 0.21256,1.61024 l -4.65427,6.06985 a 1.149,1.149 0 0 1 -0.91369,0.44819 z"
     fill="#ffffff"
     id="path2035" />
  <path
     d="M 846.42905,486.288 H 7.1350191 a 1.19069,1.19069 0 0 1 0,-2.38137 H 846.42905 a 1.190685,1.190685 0 0 1 0,2.38137 z"
     fill="#cccccc"
     id="path2037" />
</svg>
